<svg xmlns="http://www.w3.org/2000/svg" id="Layer_1" x="0" y="0" viewBox="0 0 1000 1000" xml:space="preserve"><style>.st0{fill:#b7d7f1}.st1{fill:#404040}</style><path class="st0" d="M2102.1 1869.3h-196l130.4 75.3-95.4 55.1-73.1-42.2h-196l171.1 98.8-171.1 98.8h196l73.1-42.2 95.4 55.1-130.4 75.3h196l269.4-155.5.5-62.5-269.9-156zm73.5 218.4l-41 23.7-41-23.7-54.4-31.4 53.9-31.1 41.5-24 41.5 24 53.9 31.1-54.4 31.4zm-643.5-53.5l2.8-35.2 15.5 1.2-1.4 17.2 22.9 1.8 1.2-15.5 14.2 1.1-1.2 15.5 37.3 3-1.4 18-89.9-7.1zm97.3-55.2l-3.1 18-88.8-15.3 3.1-18 88.8 15.3zm-48.8-41.7c.9.2 1.4.3 1.7.3.2-.1.5-.3.9-.7l17.8-20.5c1.7 0 3.9.4 6.6 1.2l30 8.4c1.5 3.7 2.2 7.5 2.2 11.6 0 4-.5 7.9-1.5 11.6-1 3.7-2.6 7.2-4.7 10.6-2.1 3.4-4.7 6.3-7.9 8.7l-22.1-6.2 4.8-17.3 15.3 4.3c.8.2 1.3-.1 1.6-1l1.5-5.4c.2-.9 0-1.4-.8-1.6l-18.4-5.1c-1.1-.3-1.8-.5-2.2-.4-.4 0-.8.4-1.5 1.2l-17.5 20.1c-.8-.1-1.9-.2-3.2-.5-1.3-.3-2.4-.5-3.4-.8l-30.9-8.6c-1.5-3.7-2.2-7.5-2.3-11.5s.4-7.8 1.5-11.5c1-3.7 2.6-7.2 4.7-10.7 2.1-3.4 4.8-6.4 7.9-8.7l22.7 6.3-4.8 17.3-15.9-4.4c-.8-.2-1.3.1-1.6 1l-1.5 5.4c-.2.9 0 1.4.8 1.6l20.2 5.3zm-18-53.6l7.1-16.6 35.3 15.2 3.5-8.1-35.3-15.2 7.1-16.6 82.8 35.6-7.1 16.6-34.4-14.8-3.5 8.1 34.4 14.8-7.1 16.6-82.8-35.6zm134.6-71.5c0 3.5-.8 7.3-2.4 11.4-1.6 4.1-3.8 8.1-6.5 12.2l-11.1 16.6-74.9-50.2 11.1-16.6c2.7-4.1 5.6-7.6 8.7-10.7 3.1-3.1 6.3-5.3 9.6-6.6l28.6 19.2c.4 1.3.8 2.7 1 4.4.2 1.6.3 3.2.3 4.9 1.5-.6 3-1.1 4.5-1.6s2.9-.8 4.2-.9l26.9 17.9zm-68.9-24.2c-1-.6-1.8-.5-2.4.5l-3.6 5.4 22.6 15.1 3.9-5.8c.5-.7.3-1.3-.3-1.7l-20.2-13.5zm33.6 22.5c-.7-.5-1.3-.3-1.7.3l-3.9 5.8 20.9 14 3.6-5.4c.6-1 .5-1.8-.5-2.4l-18.4-12.3zm7.3-95.2l63.7 56.2c-.3 3.9-1.3 7.8-3.1 11.5s-3.9 7-6.5 9.8c-2.5 2.9-5.5 5.4-9 7.6-3.5 2.2-7.1 3.7-11 4.5l-63.7-56.2 12-13.6 58.4 51.5c.6.5 1.2.5 1.8-.2l3.8-4.3c.6-.7.6-1.3 0-1.8l-58.4-51.5 12-13.5zm82 46.4l-48.4-55.1h-2l-7.5 6.6-10.2-11.6 31.3-27.5 10.2 11.6-7.5 6.6-.2 2 48.4 55.1-14.1 12.3zm7.5-104.2c-.5-.7-1.1-.8-1.8-.3l-4.7 3.2c-.8.5-.9 1.1-.4 1.8l36.7 54.4c.5.7 1.1.8 1.8.3l4.7-3.2c.8-.5.9-1.1.4-1.8l-14.1-21 14.8-10 18.1 26.8c-1.3 3.7-3.2 7.2-5.8 10.3-2.6 3.1-5.5 5.7-8.7 7.9-3.2 2.1-6.7 3.8-10.5 5.1-3.9 1.3-7.8 1.8-11.7 1.6l-44.6-66.1c1.3-3.7 3.2-7.2 5.8-10.3 2.6-3.1 5.5-5.7 8.7-7.9 3.2-2.1 6.7-3.8 10.5-5.1 3.9-1.3 7.8-1.8 11.7-1.6l17.9 26.5-14.8 10-14-20.6zm25.8-30.7l16.2-8 17.1 34.4 7.9-3.9-17.1-34.4 16.2-8 40 80.8-16.2 8-16.6-33.6-7.9 3.9 16.6 33.6-16.2 8-40-80.8zm58.9-27.4l33.3-11.7 5.1 14.6-16.3 5.7 7.6 21.6 14.6-5.1 4.7 13.5-14.6 5.1 7.3 20.7 16.3-5.7 5.1 14.6-33.3 11.7-29.8-85zm89.9 32c-.2-.8-.7-1.1-1.5-.9l-6.8 1.5 7.5 34.4-17.7 3.8-19.1-88.1 20.1-4.4c4.7-1 9.2-1.6 13.5-1.6 4.3-.1 8.1.6 11.4 1.9l7.7 35.6c-.6 1.2-1.4 2.5-2.3 3.8-1 1.3-2 2.6-3.1 3.7 1.5.6 2.9 1.3 4.4 2 1.4.7 2.6 1.5 3.7 2.3l7.7 35.3-18.2 3.9-7.3-33.2zm-11.2-13l6.8-1.5c.8-.2 1.1-.7.9-1.5l-5.6-25.6c-.2-1.1-.9-1.6-2.1-1.3l-6.3 1.4 6.3 28.5zm67.4 2.5c.9-.1 1.3-.5 1.3-1.3l-4.2-52.2 18-1.5 4.8 59.3c-1.6 1.7-3.5 3.1-5.8 4.3-2.3 1.2-4.7 2.1-7.2 2.7l2 24.6-17.6 1.4-2-24.6c-2.6-.2-5.1-.7-7.5-1.5s-4.6-1.9-6.4-3.3l-4.8-59.3 18-1.5 4.2 52.2c.1.8.6 1.2 1.5 1.1l5.7-.4z"/><path class="st0" d="M2022 1566.3v90c220.9 0 400 179.1 400 400s-179.1 400-400 400-400-179.1-400-400h-90c0 270.6 219.4 490 490 490s490-219.4 490-490-219.3-490-490-490z"/><path class="st1" d="M573.7 328H393.4l120 69.3-87.8 50.7-67.3-38.8H177.9L335.3 500l-157.4 90.9h180.4l67.3-38.8 87.8 50.7-120 69.3h180.4L821.7 529l.5-57.5L573.7 328zm67.6 200.9l-37.8 21.8-37.8-21.8-50-28.9 49.6-28.6 38.2-22.1 38.2 22.1 49.6 28.6-50 28.9zM10 477.9l2.8-35.2 15.5 1.2-1.4 17.2 22.9 1.8 1.2-15.5 14.2 1.1L64 464l37.3 3-1.4 18-89.9-7.1zm97.4-55.2l-3.1 18-88.8-15.3 3.1-18 88.8 15.3zM58.6 381c.9.2 1.4.3 1.7.3.2-.1.5-.3.9-.7L79 360.1c1.7 0 3.9.4 6.6 1.2l30 8.4c1.5 3.7 2.2 7.5 2.2 11.6 0 4-.5 7.9-1.5 11.6-1 3.7-2.6 7.2-4.7 10.6-2.1 3.4-4.7 6.3-7.9 8.7L81.6 406l4.8-17.3 15.3 4.3c.8.2 1.3-.1 1.6-1l1.5-5.4c.2-.9 0-1.4-.8-1.6l-18.4-5.1c-1.1-.3-1.8-.5-2.2-.4-.4 0-.8.4-1.5 1.2l-17.5 20.1c-.8-.1-1.9-.2-3.2-.5-1.3-.3-2.4-.5-3.4-.8l-30.9-8.6c-1.5-3.7-2.2-7.5-2.3-11.5s.4-7.8 1.5-11.5c1-3.7 2.6-7.2 4.7-10.7 2.1-3.4 4.8-6.4 7.9-8.7l22.7 6.3-4.8 17.3-15.9-4.4c-.8-.2-1.3.1-1.6 1l-1.5 5.4c-.2.9 0 1.4.8 1.6l20.2 5.3zm-18-53.6l7.1-16.6L83 325.9l3.5-8.1-35.3-15.2 7.1-16.6 82.8 35.6-7.1 16.6-34.4-14.8-3.5 8.1 34.4 14.8-7.1 16.6-82.8-35.5zm134.5-71.5c0 3.5-.8 7.3-2.4 11.4-1.6 4.1-3.8 8.1-6.5 12.2l-11.1 16.6-74.9-50.2 11.1-16.6c2.7-4.1 5.6-7.6 8.7-10.7 3.1-3.1 6.3-5.3 9.6-6.6l28.6 19.2c.4 1.3.8 2.7 1 4.4.2 1.6.3 3.2.3 4.9 1.5-.6 3-1.1 4.5-1.6s2.9-.8 4.2-.9l26.9 17.9zm-68.8-24.2c-1-.6-1.8-.5-2.4.5l-3.6 5.4 22.6 15.1 3.9-5.8c.5-.7.3-1.3-.3-1.7l-20.2-13.5zm33.5 22.5c-.7-.5-1.3-.3-1.7.3l-3.9 5.8 20.9 14 3.6-5.4c.6-1 .5-1.8-.5-2.4l-18.4-12.3zm7.4-95.1l63.7 56.2c-.3 3.9-1.3 7.8-3.1 11.5s-3.9 7-6.5 9.8c-2.5 2.9-5.5 5.4-9 7.6-3.5 2.2-7.1 3.7-11 4.5l-63.7-56.2 12-13.6 58.4 51.5c.6.5 1.2.5 1.8-.2l3.8-4.3c.6-.7.6-1.3 0-1.8l-58.4-51.5 12-13.5zm82 46.4l-48.4-55.1h-2l-7.5 6.6-10.3-11.7 31.3-27.5 10.2 11.6-7.5 6.6-.2 2 48.4 55.1-14 12.4zm7.4-104.3c-.5-.7-1.1-.8-1.8-.3l-4.7 3.2c-.8.5-.9 1.1-.4 1.8l36.7 54.4c.5.7 1.1.8 1.8.3l4.7-3.2c.8-.5.9-1.1.4-1.8l-14.1-21 14.8-10 18.1 26.8c-1.3 3.7-3.2 7.2-5.8 10.3-2.6 3.1-5.5 5.7-8.7 7.9-3.2 2.1-6.7 3.8-10.5 5.1-3.9 1.3-7.8 1.8-11.7 1.6l-44.6-66.1c1.3-3.7 3.2-7.2 5.8-10.3 2.6-3.1 5.5-5.7 8.7-7.9 3.2-2.1 6.7-3.8 10.5-5.1 3.9-1.3 7.8-1.8 11.7-1.6l17.9 26.5-14.8 10-14-20.6zm25.9-30.6l16.2-8L295.8 97l7.9-3.9-17.1-34.4 16.2-8 40 80.8-16.2 8-16.6-33.7-7.9 3.9 16.6 33.6-16.2 8-40-80.7zm58.9-27.5l33.3-11.7 5.1 14.6-16.3 5.7 7.6 21.6 14.6-5.1 4.7 13.5-14.6 5.1 7.3 20.7 16.3-5.7 5.1 14.6-33.3 11.7-29.8-85zm89.9 32c-.2-.8-.7-1.1-1.5-.9l-6.8 1.5 7.5 34.4-17.7 3.8-19.1-88.1 20.1-4.4c4.7-1 9.2-1.6 13.5-1.6 4.3-.1 8.1.6 11.4 1.9l7.7 35.6c-.6 1.2-1.4 2.5-2.3 3.8-1 1.3-2 2.6-3.1 3.7 1.5.6 2.9 1.3 4.4 2 1.4.7 2.6 1.5 3.7 2.3l7.7 35.3-18.2 3.9-7.3-33.2zm-11.2-12.9l6.8-1.5c.8-.2 1.1-.7.9-1.5l-5.6-25.6c-.2-1.1-.9-1.6-2.1-1.3l-6.3 1.4 6.3 28.5zm67.3 2.4c.9-.1 1.3-.5 1.3-1.3l-4.2-52.2 18-1.5 4.8 59.3c-1.6 1.7-3.5 3.1-5.8 4.3-2.3 1.2-4.7 2.1-7.2 2.7l2 24.6-17.6 1.4-2-24.6c-2.6-.2-5.1-.7-7.5-1.5s-4.6-1.9-6.4-3.3L438 13.2l18-1.5 4.2 52.2c.1.8.6 1.2 1.5 1.1l5.7-.4z"/><path class="st1" d="M500 10v90c220.9 0 400 179.1 400 400S720.9 900 500 900 100 720.9 100 500H10c0 270.6 219.4 490 490 490s490-219.4 490-490S770.6 10 500 10z"/><path class="st0" d="M573.7 1884.2H393.4l120 69.3-87.8 50.7-67.3-38.8H177.9l157.4 90.9-157.4 90.9h180.4l67.3-38.8 87.8 50.7-120 69.3h180.4l247.9-143.1.5-57.5-248.5-143.6zm67.6 201l-37.8 21.8-37.8-21.8-50.1-28.9 49.6-28.6 38.2-22.1 38.2 22.1 49.6 28.6-49.9 28.9zm-631.3-51l2.8-35.2 15.5 1.2-1.4 17.2 22.9 1.8 1.2-15.5 14.2 1.1-1.2 15.5 37.3 3-1.4 18-89.9-7.1zm97.4-55.2l-3.1 18-88.8-15.3 3.1-18 88.8 15.3zm-48.8-41.7c.9.2 1.4.3 1.7.3.2-.1.5-.3.9-.7l17.8-20.5c1.7 0 3.9.4 6.6 1.2l30 8.4c1.5 3.7 2.2 7.5 2.2 11.6 0 4-.5 7.9-1.5 11.6-1 3.7-2.6 7.2-4.7 10.6-2.1 3.4-4.7 6.3-7.9 8.7l-22.1-6.2 4.8-17.3 15.3 4.3c.8.2 1.3-.1 1.6-1l1.5-5.4c.2-.9 0-1.4-.8-1.6l-18.4-5.1c-1.1-.3-1.8-.5-2.2-.4-.4 0-.8.4-1.5 1.2l-17.5 20.1c-.8-.1-1.9-.2-3.2-.5-1.3-.3-2.4-.5-3.4-.8l-30.9-8.6c-1.5-3.7-2.2-7.5-2.3-11.5s.4-7.8 1.5-11.5c1-3.7 2.6-7.2 4.7-10.7 2.1-3.4 4.8-6.4 7.9-8.7l22.7 6.3-4.8 17.3-15.9-4.4c-.8-.2-1.3.1-1.6 1l-1.5 5.4c-.2.9 0 1.4.8 1.6l20.2 5.3zm-18-53.6l7.1-16.6 35.3 15.2 3.5-8.1-35.3-15.2 7.1-16.6 82.8 35.6-7.1 16.6-34.4-14.8-3.5 8.1 34.4 14.8-7.1 16.6-82.8-35.6zm134.5-71.5c0 3.5-.8 7.3-2.4 11.4-1.6 4.1-3.8 8.1-6.5 12.2l-11.1 16.6-74.9-50.2 11.1-16.6c2.7-4.1 5.6-7.6 8.7-10.7 3.1-3.1 6.3-5.3 9.6-6.6l28.6 19.2c.4 1.3.8 2.7 1 4.4.2 1.6.3 3.2.3 4.9 1.5-.6 3-1.1 4.5-1.6s2.9-.8 4.2-.9l26.9 17.9zm-68.8-24.2c-1-.6-1.8-.5-2.4.5l-3.6 5.4 22.6 15.1 3.9-5.8c.5-.7.3-1.3-.3-1.7l-20.2-13.5zm33.5 22.5c-.7-.5-1.3-.3-1.7.3l-3.9 5.8 20.9 14 3.6-5.4c.6-1 .5-1.8-.5-2.4l-18.4-12.3zm7.4-95.2l63.7 56.2c-.3 3.9-1.3 7.8-3.1 11.5s-3.9 7-6.5 9.8c-2.5 2.9-5.5 5.4-9 7.6-3.5 2.2-7.1 3.7-11 4.5l-63.7-56.2 12-13.6 58.4 51.5c.6.5 1.2.5 1.8-.2l3.8-4.3c.6-.7.6-1.3 0-1.8l-58.4-51.5 12-13.5zm82 46.4l-48.4-55.1h-2l-7.5 6.6-10.2-11.6 31.3-27.5 10.2 11.6-7.5 6.6-.2 2 48.4 55.1-14.1 12.3zm7.4-104.2c-.5-.7-1.1-.8-1.8-.3l-4.7 3.2c-.8.5-.9 1.1-.4 1.8l36.7 54.4c.5.7 1.1.8 1.8.3l4.7-3.2c.8-.5.9-1.1.4-1.8l-14.1-21 14.8-10 18.1 26.8c-1.3 3.7-3.2 7.2-5.8 10.3-2.6 3.1-5.5 5.7-8.7 7.9-3.2 2.1-6.7 3.8-10.5 5.1-3.9 1.3-7.8 1.8-11.7 1.6l-44.6-66.1c1.3-3.7 3.2-7.2 5.8-10.3 2.6-3.1 5.5-5.7 8.7-7.9 3.2-2.1 6.7-3.8 10.5-5.1 3.9-1.3 7.8-1.8 11.7-1.6l17.9 26.5-14.8 10-14-20.6zm25.9-30.7l16.2-8 17.1 34.4 7.9-3.9-17.1-34.4 16.2-8 40 80.8-16.2 8-16.6-33.6-7.9 3.9 16.6 33.6-16.2 8-40-80.8zm58.9-27.4l33.3-11.7 5.1 14.6-16.3 5.7 7.6 21.6 14.6-5.1 4.7 13.5-14.6 5.1 7.3 20.7 16.3-5.7 5.1 14.6-33.3 11.7-29.8-85zm89.9 32c-.2-.8-.7-1.1-1.5-.9l-6.8 1.5 7.5 34.4-17.7 3.8-19.1-88.1 20.1-4.4c4.7-1 9.2-1.6 13.5-1.6 4.3-.1 8.1.6 11.4 1.9l7.7 35.6c-.6 1.2-1.4 2.5-2.3 3.8-1 1.3-2 2.6-3.1 3.7 1.5.6 2.9 1.3 4.4 2 1.4.7 2.6 1.5 3.7 2.3l7.7 35.3-18.2 3.9-7.3-33.2zm-11.2-13l6.8-1.5c.8-.2 1.1-.7.9-1.5l-5.6-25.6c-.2-1.1-.9-1.6-2.1-1.3l-6.3 1.4 6.3 28.5zm67.3 2.5c.9-.1 1.3-.5 1.3-1.3l-4.2-52.2 18-1.5 4.8 59.3c-1.6 1.7-3.5 3.1-5.8 4.3-2.3 1.2-4.7 2.1-7.2 2.7l2 24.6-17.6 1.4-2-24.6c-2.6-.2-5.1-.7-7.5-1.5s-4.6-1.9-6.4-3.3l-4.8-59.3 18-1.5 4.2 52.2c.1.8.6 1.2 1.5 1.1l5.7-.4z"/><path class="st0" d="M500 1566.3v90c220.9 0 400 179.1 400 400s-179.1 400-400 400-400-179.1-400-400H10c0 270.6 219.4 490 490 490s490-219.4 490-490-219.4-490-490-490z"/></svg>