<?xml version="1.0" encoding="UTF-8"?> <!-- Generator: Adobe Illustrator 24.0.1, SVG Export Plug-In . SVG Version: 6.00 Build 0) --> <svg xmlns="http://www.w3.org/2000/svg" xmlns:xlink="http://www.w3.org/1999/xlink" id="Layer_1" x="0px" y="0px" viewBox="0 0 1000 1000" style="enable-background:new 0 0 1000 1000;" xml:space="preserve"> <style type="text/css"> .st0{fill:#B7D7F1;} .st1{fill:#404040;} </style> <path class="st0" d="M2102.1,1869.3h-196l130.4,75.3l-95.4,55.1l-73.1-42.2h-196l171.1,98.8l-171.1,98.8h196l73.1-42.2l95.4,55.1 l-130.4,75.3h196l269.4-155.5l0.5-62.5L2102.1,1869.3z M2175.6,2087.7l-41,23.7l-41-23.7l-54.4-31.4l53.9-31.1l41.5-24l41.5,24 l53.9,31.1L2175.6,2087.7z"></path> <g> <path class="st0" d="M1532.1,2034.2l2.8-35.2l15.5,1.2l-1.4,17.2l22.9,1.8l1.2-15.5l14.2,1.1l-1.2,15.5l37.3,3l-1.4,18 L1532.1,2034.2z"></path> <path class="st0" d="M1629.4,1979l-3.1,18l-88.8-15.3l3.1-18L1629.4,1979z"></path> <path class="st0" d="M1580.6,1937.3c0.9,0.2,1.4,0.3,1.7,0.3c0.2-0.1,0.5-0.3,0.9-0.7l17.8-20.5c1.7,0,3.9,0.4,6.6,1.2l30,8.4 c1.5,3.7,2.2,7.5,2.2,11.6c0,4-0.5,7.9-1.5,11.6c-1,3.7-2.6,7.2-4.7,10.6c-2.1,3.4-4.7,6.3-7.9,8.7l-22.1-6.2l4.8-17.3l15.3,4.3 c0.8,0.2,1.3-0.1,1.6-1l1.5-5.4c0.2-0.9,0-1.4-0.8-1.6l-18.4-5.1c-1.1-0.3-1.8-0.5-2.2-0.4c-0.4,0-0.8,0.4-1.5,1.2l-17.5,20.1 c-0.8-0.1-1.9-0.2-3.2-0.5c-1.3-0.3-2.4-0.5-3.4-0.8l-30.9-8.6c-1.5-3.7-2.2-7.5-2.3-11.5s0.4-7.8,1.5-11.5c1-3.7,2.6-7.2,4.7-10.7 c2.1-3.4,4.8-6.4,7.9-8.7l22.7,6.3l-4.8,17.3l-15.9-4.4c-0.8-0.2-1.3,0.1-1.6,1l-1.5,5.4c-0.2,0.9,0,1.4,0.8,1.6L1580.6,1937.3z"></path> <path class="st0" d="M1562.6,1883.7l7.1-16.6l35.3,15.2l3.5-8.1l-35.3-15.2l7.1-16.6l82.8,35.6l-7.1,16.6l-34.4-14.8l-3.5,8.1 l34.4,14.8l-7.1,16.6L1562.6,1883.7z"></path> <path class="st0" d="M1697.2,1812.2c0,3.5-0.8,7.3-2.4,11.4c-1.6,4.1-3.8,8.1-6.5,12.2l-11.1,16.6l-74.9-50.2l11.1-16.6 c2.7-4.1,5.6-7.6,8.7-10.7c3.1-3.1,6.3-5.3,9.6-6.6l28.6,19.2c0.4,1.3,0.8,2.7,1,4.4c0.2,1.6,0.3,3.2,0.3,4.9 c1.5-0.6,3-1.1,4.5-1.6c1.5-0.5,2.9-0.8,4.2-0.9L1697.2,1812.2z M1628.3,1788c-1-0.6-1.8-0.5-2.4,0.5l-3.6,5.4l22.6,15.1l3.9-5.8 c0.5-0.7,0.3-1.3-0.3-1.7L1628.3,1788z M1661.9,1810.5c-0.7-0.5-1.3-0.3-1.7,0.3l-3.9,5.8l20.9,14l3.6-5.4c0.6-1,0.5-1.8-0.5-2.4 L1661.9,1810.5z"></path> <path class="st0" d="M1669.2,1715.3l63.7,56.2c-0.3,3.9-1.3,7.8-3.1,11.5c-1.8,3.7-3.9,7-6.5,9.8c-2.5,2.9-5.5,5.4-9,7.6 c-3.5,2.2-7.1,3.7-11,4.5l-63.7-56.2l12-13.6l58.4,51.5c0.6,0.5,1.2,0.5,1.8-0.2l3.8-4.3c0.6-0.7,0.6-1.3,0-1.8l-58.4-51.5 L1669.2,1715.3z"></path> <path class="st0" d="M1751.2,1761.7l-48.4-55.1l-2,0l-7.5,6.6l-10.2-11.6l31.3-27.5l10.2,11.6l-7.5,6.6l-0.2,2l48.4,55.1 L1751.2,1761.7z"></path> <path class="st0" d="M1758.7,1657.5c-0.5-0.7-1.1-0.8-1.8-0.3l-4.7,3.2c-0.8,0.5-0.9,1.1-0.4,1.8l36.7,54.4 c0.5,0.7,1.1,0.8,1.8,0.3l4.7-3.2c0.8-0.5,0.9-1.1,0.4-1.8l-14.1-21l14.8-10l18.1,26.8c-1.3,3.7-3.2,7.2-5.8,10.3 c-2.6,3.1-5.5,5.7-8.7,7.9c-3.2,2.1-6.7,3.8-10.5,5.1c-3.9,1.3-7.8,1.8-11.7,1.6l-44.6-66.1c1.3-3.7,3.2-7.2,5.8-10.3 c2.6-3.1,5.5-5.7,8.7-7.9c3.2-2.1,6.7-3.8,10.5-5.1c3.9-1.3,7.8-1.8,11.7-1.6l17.9,26.5l-14.8,10L1758.7,1657.5z"></path> <path class="st0" d="M1784.5,1626.8l16.2-8l17.1,34.4l7.9-3.9l-17.1-34.4l16.2-8l40,80.8l-16.2,8l-16.6-33.6l-7.9,3.9l16.6,33.6 l-16.2,8L1784.5,1626.8z"></path> <path class="st0" d="M1843.4,1599.4l33.3-11.7l5.1,14.6l-16.3,5.7l7.6,21.6l14.6-5.1l4.7,13.5l-14.6,5.1l7.3,20.7l16.3-5.7 l5.1,14.6l-33.3,11.7L1843.4,1599.4z"></path> <path class="st0" d="M1933.3,1631.4c-0.2-0.8-0.7-1.1-1.5-0.9l-6.8,1.5l7.5,34.4l-17.7,3.8l-19.1-88.1l20.1-4.4 c4.7-1,9.2-1.6,13.5-1.6c4.3-0.1,8.1,0.6,11.4,1.9l7.7,35.6c-0.6,1.2-1.4,2.5-2.3,3.8c-1,1.3-2,2.6-3.1,3.7c1.5,0.6,2.9,1.3,4.4,2 c1.4,0.7,2.6,1.5,3.7,2.3l7.7,35.3l-18.2,3.9L1933.3,1631.4z M1922.1,1618.4l6.8-1.5c0.8-0.2,1.1-0.7,0.9-1.5l-5.6-25.6 c-0.2-1.1-0.9-1.6-2.1-1.3l-6.3,1.4L1922.1,1618.4z"></path> <path class="st0" d="M1989.5,1620.9c0.9-0.1,1.3-0.5,1.3-1.3l-4.2-52.2l18-1.5l4.8,59.3c-1.6,1.7-3.5,3.1-5.8,4.3 c-2.3,1.2-4.7,2.1-7.2,2.7l2,24.6l-17.6,1.4l-2-24.6c-2.6-0.2-5.1-0.7-7.5-1.5s-4.6-1.9-6.4-3.3l-4.8-59.3l18-1.5l4.2,52.2 c0.1,0.8,0.6,1.2,1.5,1.1L1989.5,1620.9z"></path> </g> <path class="st0" d="M2022,1566.3v90c220.9,0,400,179.1,400,400c0,220.9-179.1,400-400,400s-400-179.1-400-400h-90 c0,270.6,219.4,490,490,490s490-219.4,490-490S2292.7,1566.3,2022,1566.3z"></path> <g> <path class="st1" d="M573.7,328H393.4l120,69.3l-87.8,50.7l-67.3-38.8H177.9L335.3,500l-157.4,90.9h180.4l67.3-38.8l87.8,50.7 l-120,69.3h180.4l247.9-143.1l0.5-57.5L573.7,328z M641.3,528.9l-37.8,21.8l-37.8-21.8L515.7,500l49.6-28.6l38.2-22.1l38.2,22.1 l49.6,28.6L641.3,528.9z"></path> <g> <path class="st1" d="M10,477.9l2.8-35.2l15.5,1.2l-1.4,17.2l22.9,1.8l1.2-15.5l14.2,1.1L64,464l37.3,3l-1.4,18L10,477.9z"></path> <path class="st1" d="M107.4,422.7l-3.1,18l-88.8-15.3l3.1-18L107.4,422.7z"></path> <path class="st1" d="M58.6,381c0.9,0.2,1.4,0.3,1.7,0.3c0.2-0.1,0.5-0.3,0.9-0.7L79,360.1c1.7,0,3.9,0.4,6.6,1.2l30,8.4 c1.5,3.7,2.2,7.5,2.2,11.6c0,4-0.5,7.9-1.5,11.6c-1,3.7-2.6,7.2-4.7,10.6c-2.1,3.4-4.7,6.3-7.9,8.7l-22.1-6.2l4.8-17.3l15.3,4.3 c0.8,0.2,1.3-0.1,1.6-1l1.5-5.4c0.2-0.9,0-1.4-0.8-1.6l-18.4-5.1c-1.1-0.3-1.8-0.5-2.2-0.4c-0.4,0-0.8,0.4-1.5,1.2l-17.5,20.1 c-0.8-0.1-1.9-0.2-3.2-0.5c-1.3-0.3-2.4-0.5-3.4-0.8l-30.9-8.6c-1.5-3.7-2.2-7.5-2.3-11.5s0.4-7.8,1.5-11.5 c1-3.7,2.6-7.2,4.7-10.7c2.1-3.4,4.8-6.4,7.9-8.7l22.7,6.3l-4.8,17.3l-15.9-4.4c-0.8-0.2-1.3,0.1-1.6,1l-1.5,5.4 c-0.2,0.9,0,1.4,0.8,1.6L58.6,381z"></path> <path class="st1" d="M40.6,327.4l7.1-16.6L83,325.9l3.5-8.1l-35.3-15.2l7.1-16.6l82.8,35.6l-7.1,16.6l-34.4-14.8l-3.5,8.1 l34.4,14.8l-7.1,16.6L40.6,327.4z"></path> <path class="st1" d="M175.1,255.9c0,3.5-0.8,7.3-2.4,11.4c-1.6,4.1-3.8,8.1-6.5,12.2l-11.1,16.6l-74.9-50.2l11.1-16.6 c2.7-4.1,5.6-7.6,8.7-10.7c3.1-3.1,6.3-5.3,9.6-6.6l28.6,19.2c0.4,1.3,0.8,2.7,1,4.4c0.2,1.6,0.3,3.2,0.3,4.9 c1.5-0.6,3-1.1,4.5-1.6c1.5-0.5,2.9-0.8,4.2-0.9L175.1,255.9z M106.3,231.7c-1-0.6-1.8-0.5-2.4,0.5l-3.6,5.4l22.6,15.1l3.9-5.8 c0.5-0.7,0.3-1.3-0.3-1.7L106.3,231.7z M139.8,254.2c-0.7-0.5-1.3-0.3-1.7,0.3l-3.9,5.8l20.9,14l3.6-5.4c0.6-1,0.5-1.8-0.5-2.4 L139.8,254.2z"></path> <path class="st1" d="M147.2,159.1l63.7,56.2c-0.3,3.9-1.3,7.8-3.1,11.5c-1.8,3.7-3.9,7-6.5,9.8c-2.5,2.9-5.5,5.4-9,7.6 c-3.5,2.2-7.1,3.7-11,4.5l-63.7-56.2l12-13.6l58.4,51.5c0.6,0.5,1.2,0.5,1.8-0.2l3.8-4.3c0.6-0.7,0.6-1.3,0-1.8l-58.4-51.5 L147.2,159.1z"></path> <path class="st1" d="M229.2,205.5l-48.4-55.1l-2,0l-7.5,6.6L161,145.3l31.3-27.5l10.2,11.6l-7.5,6.6l-0.2,2l48.4,55.1L229.2,205.5 z"></path> <path class="st1" d="M236.6,101.2c-0.5-0.7-1.1-0.8-1.8-0.3l-4.7,3.2c-0.8,0.5-0.9,1.1-0.4,1.8l36.7,54.4c0.5,0.7,1.1,0.8,1.8,0.3 l4.7-3.2c0.8-0.5,0.9-1.1,0.4-1.8l-14.1-21l14.8-10l18.1,26.8c-1.3,3.7-3.2,7.2-5.8,10.3c-2.6,3.1-5.5,5.7-8.7,7.9 c-3.2,2.1-6.7,3.8-10.5,5.1c-3.9,1.3-7.8,1.8-11.7,1.6l-44.6-66.1c1.3-3.7,3.2-7.2,5.8-10.3c2.6-3.1,5.5-5.7,8.7-7.9 c3.2-2.1,6.7-3.8,10.5-5.1c3.9-1.3,7.8-1.8,11.7-1.6l17.9,26.5l-14.8,10L236.6,101.2z"></path> <path class="st1" d="M262.5,70.6l16.2-8L295.8,97l7.9-3.9l-17.1-34.4l16.2-8l40,80.8l-16.2,8L310,105.8l-7.9,3.9l16.6,33.6 l-16.2,8L262.5,70.6z"></path> <path class="st1" d="M321.4,43.1l33.3-11.7l5.1,14.6l-16.3,5.7l7.6,21.6l14.6-5.1l4.7,13.5l-14.6,5.1l7.3,20.7l16.3-5.7l5.1,14.6 l-33.3,11.7L321.4,43.1z"></path> <path class="st1" d="M411.3,75.1c-0.2-0.8-0.7-1.1-1.5-0.9l-6.8,1.5l7.5,34.4l-17.7,3.8l-19.1-88.1l20.1-4.4 c4.7-1,9.2-1.6,13.5-1.6c4.3-0.1,8.1,0.6,11.4,1.9l7.7,35.6c-0.6,1.2-1.4,2.5-2.3,3.8c-1,1.3-2,2.6-3.1,3.7c1.5,0.6,2.9,1.3,4.4,2 c1.4,0.7,2.6,1.5,3.7,2.3l7.7,35.3l-18.2,3.9L411.3,75.1z M400.1,62.2l6.8-1.5c0.8-0.2,1.1-0.7,0.9-1.5l-5.6-25.6 c-0.2-1.1-0.9-1.6-2.1-1.3l-6.3,1.4L400.1,62.2z"></path> <path class="st1" d="M467.4,64.6c0.9-0.1,1.3-0.5,1.3-1.3l-4.2-52.2l18-1.5l4.8,59.3c-1.6,1.7-3.5,3.1-5.8,4.3 c-2.3,1.2-4.7,2.1-7.2,2.7l2,24.6l-17.6,1.4l-2-24.6c-2.6-0.2-5.1-0.7-7.5-1.5s-4.6-1.9-6.4-3.3l-4.8-59.3l18-1.5l4.2,52.2 c0.1,0.8,0.6,1.2,1.5,1.1L467.4,64.6z"></path> </g> <path class="st1" d="M500,10v90c220.9,0,400,179.1,400,400S720.9,900,500,900S100,720.9,100,500H10c0,270.6,219.4,490,490,490 s490-219.4,490-490S770.6,10,500,10z"></path> </g> <path class="st0" d="M573.7,1884.2H393.4l120,69.3l-87.8,50.7l-67.3-38.8H177.9l157.4,90.9l-157.4,90.9h180.4l67.3-38.8l87.8,50.7 l-120,69.3h180.4l247.9-143.1l0.5-57.5L573.7,1884.2z M641.3,2085.2l-37.8,21.8l-37.8-21.8l-50.1-28.9l49.6-28.6l38.2-22.1 l38.2,22.1l49.6,28.6L641.3,2085.2z"></path> <g> <path class="st0" d="M10,2034.2l2.8-35.2l15.5,1.2l-1.4,17.2l22.9,1.8l1.2-15.5l14.2,1.1l-1.2,15.5l37.3,3l-1.4,18L10,2034.2z"></path> <path class="st0" d="M107.4,1979l-3.1,18l-88.8-15.3l3.1-18L107.4,1979z"></path> <path class="st0" d="M58.6,1937.3c0.9,0.2,1.4,0.3,1.7,0.3c0.2-0.1,0.5-0.3,0.9-0.7l17.8-20.5c1.7,0,3.9,0.4,6.6,1.2l30,8.4 c1.5,3.7,2.2,7.5,2.2,11.6c0,4-0.5,7.9-1.5,11.6c-1,3.7-2.6,7.2-4.7,10.6c-2.1,3.4-4.7,6.3-7.9,8.7l-22.1-6.2l4.8-17.3l15.3,4.3 c0.8,0.2,1.3-0.1,1.6-1l1.5-5.4c0.2-0.9,0-1.4-0.8-1.6l-18.4-5.1c-1.1-0.3-1.8-0.5-2.2-0.4c-0.4,0-0.8,0.4-1.5,1.2l-17.5,20.1 c-0.8-0.1-1.9-0.2-3.2-0.5c-1.3-0.3-2.4-0.5-3.4-0.8l-30.9-8.6c-1.5-3.7-2.2-7.5-2.3-11.5s0.4-7.8,1.5-11.5c1-3.7,2.6-7.2,4.7-10.7 c2.1-3.4,4.8-6.4,7.9-8.7l22.7,6.3l-4.8,17.3l-15.9-4.4c-0.8-0.2-1.3,0.1-1.6,1l-1.5,5.4c-0.2,0.9,0,1.4,0.8,1.6L58.6,1937.3z"></path> <path class="st0" d="M40.6,1883.7l7.1-16.6l35.3,15.2l3.5-8.1l-35.3-15.2l7.1-16.6l82.8,35.6l-7.1,16.6l-34.4-14.8l-3.5,8.1 l34.4,14.8l-7.1,16.6L40.6,1883.7z"></path> <path class="st0" d="M175.1,1812.2c0,3.5-0.8,7.3-2.4,11.4c-1.6,4.1-3.8,8.1-6.5,12.2l-11.1,16.6l-74.9-50.2l11.1-16.6 c2.7-4.1,5.6-7.6,8.7-10.7c3.1-3.1,6.3-5.3,9.6-6.6l28.6,19.2c0.4,1.3,0.8,2.7,1,4.4c0.2,1.6,0.3,3.2,0.3,4.9 c1.5-0.6,3-1.1,4.5-1.6c1.5-0.5,2.9-0.8,4.2-0.9L175.1,1812.2z M106.3,1788c-1-0.6-1.8-0.5-2.4,0.5l-3.6,5.4l22.6,15.1l3.9-5.8 c0.5-0.7,0.3-1.3-0.3-1.7L106.3,1788z M139.8,1810.5c-0.7-0.5-1.3-0.3-1.7,0.3l-3.9,5.8l20.9,14l3.6-5.4c0.6-1,0.5-1.8-0.5-2.4 L139.8,1810.5z"></path> <path class="st0" d="M147.2,1715.3l63.7,56.2c-0.3,3.9-1.3,7.8-3.1,11.5c-1.8,3.7-3.9,7-6.5,9.8c-2.5,2.9-5.5,5.4-9,7.6 c-3.5,2.2-7.1,3.7-11,4.5l-63.7-56.2l12-13.6l58.4,51.5c0.6,0.5,1.2,0.5,1.8-0.2l3.8-4.3c0.6-0.7,0.6-1.3,0-1.8l-58.4-51.5 L147.2,1715.3z"></path> <path class="st0" d="M229.2,1761.7l-48.4-55.1l-2,0l-7.5,6.6l-10.2-11.6l31.3-27.5l10.2,11.6l-7.5,6.6l-0.2,2l48.4,55.1 L229.2,1761.7z"></path> <path class="st0" d="M236.6,1657.5c-0.5-0.7-1.1-0.8-1.8-0.3l-4.7,3.2c-0.8,0.5-0.9,1.1-0.4,1.8l36.7,54.4c0.5,0.7,1.1,0.8,1.8,0.3 l4.7-3.2c0.8-0.5,0.9-1.1,0.4-1.8l-14.1-21l14.8-10l18.1,26.8c-1.3,3.7-3.2,7.2-5.8,10.3c-2.6,3.1-5.5,5.7-8.7,7.9 c-3.2,2.1-6.7,3.8-10.5,5.1c-3.9,1.3-7.8,1.8-11.7,1.6l-44.6-66.1c1.3-3.7,3.2-7.2,5.8-10.3c2.6-3.1,5.5-5.7,8.7-7.9 c3.2-2.1,6.7-3.8,10.5-5.1c3.9-1.3,7.8-1.8,11.7-1.6l17.9,26.5l-14.8,10L236.6,1657.5z"></path> <path class="st0" d="M262.5,1626.8l16.2-8l17.1,34.4l7.9-3.9l-17.1-34.4l16.2-8l40,80.8l-16.2,8l-16.6-33.6l-7.9,3.9l16.6,33.6 l-16.2,8L262.5,1626.8z"></path> <path class="st0" d="M321.4,1599.4l33.3-11.7l5.1,14.6l-16.3,5.7l7.6,21.6l14.6-5.1l4.7,13.5l-14.6,5.1l7.3,20.7l16.3-5.7l5.1,14.6 l-33.3,11.7L321.4,1599.4z"></path> <path class="st0" d="M411.3,1631.4c-0.2-0.8-0.7-1.1-1.5-0.9l-6.8,1.5l7.5,34.4l-17.7,3.8l-19.1-88.1l20.1-4.4 c4.7-1,9.2-1.6,13.5-1.6c4.3-0.1,8.1,0.6,11.4,1.9l7.7,35.6c-0.6,1.2-1.4,2.5-2.3,3.8c-1,1.3-2,2.6-3.1,3.7c1.5,0.6,2.9,1.3,4.4,2 c1.4,0.7,2.6,1.5,3.7,2.3l7.7,35.3l-18.2,3.9L411.3,1631.4z M400.1,1618.4l6.8-1.5c0.8-0.2,1.1-0.7,0.9-1.5l-5.6-25.6 c-0.2-1.1-0.9-1.6-2.1-1.3l-6.3,1.4L400.1,1618.4z"></path> <path class="st0" d="M467.4,1620.9c0.9-0.1,1.3-0.5,1.3-1.3l-4.2-52.2l18-1.5l4.8,59.3c-1.6,1.7-3.5,3.1-5.8,4.3 c-2.3,1.2-4.7,2.1-7.2,2.7l2,24.6l-17.6,1.4l-2-24.6c-2.6-0.2-5.1-0.7-7.5-1.5s-4.6-1.9-6.4-3.3l-4.8-59.3l18-1.5l4.2,52.2 c0.1,0.8,0.6,1.2,1.5,1.1L467.4,1620.9z"></path> </g> <path class="st0" d="M500,1566.3v90c220.9,0,400,179.1,400,400c0,220.9-179.1,400-400,400s-400-179.1-400-400H10 c0,270.6,219.4,490,490,490s490-219.4,490-490S770.6,1566.3,500,1566.3z"></path> </svg> 